<svg xmlns="http://www.w3.org/2000/svg" width="578" height="184" viewBox="0 0 462.000000 147.000000"><g transform="matrix(.1 0 0-.1 0 147)"><path d="m4215 1452c-62-29-71-46-46-78 18-23 21-40 21-115v-89h-130c-115 0-132 2-149 19-20 20-20 20-44 1-30-24-57-78-57-115 0-77 69-124 183-125 47 0 67-4 67-12-1-30-69-179-113-245-58-87-180-204-247-235-27-13-49-28-50-34 0-21 87-92 126-103 144-40 267 42 374 249l49 95 1-182v-183l-25-16c-21-14-40-16-103-10-54 4-72 3-60-4 9-6 26-26 38-46 22-35 23-66 4-145-11-48 14-59 129-59 147 1 199 28 232 119 12 36 15 109 15 433v390l38-3c70-4 93 1 117 26 29 28 33 80 10 124-17 33-97 90-139 98l-29 6 6 85c3 47 1 96-4 108-19 52-144 79-214 46"/><path d="m3408 1446c-26-7-54-18-62-26-18-14-21-40-6-40 19 0 38-56 44-131 7-74 7-76-16-83-36-9-127-7-148 4-29 15-70-43-70-99 0-77 30-109 118-126 22-5 32-12 32-25 0-58-116-344-169-419-19-26-19-30-5-42 9-7 41-15 72-17 53-4 59-2 91 30 19 18 45 50 59 71 14 20 26 36 28 35 3-3-11-219-22-338-4-38-1-83 5-108 23-83 109-146 165-121 13 6 31 25 42 42 17 29 19 57 22 293l3 262 39-15c103-41 182 42 135 141-19 39-92 89-147 102-27 5-28 8-28 65v59h84c76 0 86 2 100 22 36 51 3 160-58 193-24 13-46 16-81 13l-48-6 7 93c9 114-3 144-64 169-47 19-59 19-122 2"/><path d="m1838 1350c-36-9-118-56-118-68 0-3 7-13 16-23 29-32 36-141 27-409-13-414-11-487 13-541 28-60 78-116 128-141 34-17 53-20 121-15 252 16 578 266 705 540 16 34 32 75 36 91l7 30-59-46c-221-168-490-308-594-308-20 0-40 9-56 25l-26 26 5 342c3 248 7 352 17 379 11 32 11 40-3 61-32 49-139 77-219 57"/><path d="m740 1280c-63-10-189-24-280-30-146-11-169-11-202 3l-38 16-27-47c-23-39-28-59-28-115 0-68 0-69 44-109l43-41 97 6c53 4 141 11 196 17 55 6 188 10 295 9 242-2 222-4 254 27 20 21 26 37 26 70 0 55-11 83-52 129-41 47-120 85-173 84-22-1-92-9-155-19"/><path d="m947 480c-77-13-737-42-787-35-25 4-54 12-64 17-17 9-24 5-47-21-36-44-53-108-44-168 5-36 16-56 46-86l39-39 153 6c365 15 629 18 757 8 201-16 257 5 267 102 8 63-18 127-68 169-62 54-132 67-252 47"/></g></svg>